<svg xmlns="http://www.w3.org/2000/svg" version="1.1" xmlns:xlink="http://www.w3.org/1999/xlink" xmlns:svgjs="http://svgjs.dev/svgjs" width="1441" height="561" preserveAspectRatio="none" viewBox="0 0 1441 561"><g mask="url(&quot;#SvgjsMask1208&quot;)" fill="none"><path d="M -90.42604247662297,463.5 C 5.77,401.5 198.17,145.9 390.57395752337703,153.5 C 582.97,161.1 679.17,510.5 871.573957523377,501.5 C 1063.97,492.5 1160.17,133.1 1352.573957523377,108.5 C 1544.97,83.9 1815.89,345.9 1833.573957523377,378.5 C 1851.26,411.1 1519.51,292.9 1441,271.5" stroke="rgba(79, 131, 255, 1)" stroke-width="2"></path><path d="M -72.97544336016017,416.5 C 23.22,356.3 215.62,127.9 408.02455663983983,115.5 C 600.42,103.1 696.62,347.1 889.0245566398398,354.5 C 1081.42,361.9 1177.62,144.3 1370.0245566398398,152.5 C 1562.42,160.7 1836.83,412.7 1851.0245566398398,395.5 C 1865.22,378.3 1523,132.3 1441,66.5" stroke="rgba(79, 131, 255, 1)" stroke-width="2"></path><path d="M -112.27030739198625,87.5 C -16.07,161.3 176.33,426.3 368.72969260801375,456.5 C 561.13,486.7 657.33,257.7 849.7296926080137,238.5 C 1042.13,219.3 1138.33,360.1 1330.7296926080137,360.5 C 1523.13,360.9 1789.68,238.3 1811.7296926080137,240.5 C 1833.78,242.7 1515.15,345.3 1441,371.5" stroke="rgba(79, 131, 255, 1)" stroke-width="2"></path><path d="M -233.1914043748584,366.5 C -136.99,312.9 55.41,112.9 247.8085956251416,98.5 C 440.21,84.1 536.41,275.1 728.8085956251416,294.5 C 921.21,313.9 1017.41,153.3 1209.8085956251416,195.5 C 1402.21,237.7 1644.57,539.7 1690.8085956251416,505.5 C 1737.05,471.3 1490.96,120.7 1441,24.5" stroke="rgba(79, 131, 255, 1)" stroke-width="2"></path><path d="M -60.44388297435381,0.5 C 35.76,86.3 228.16,405.9 420.5561170256462,429.5 C 612.96,453.1 709.16,126.1 901.5561170256462,118.5 C 1093.96,110.9 1190.16,405.7 1382.5561170256462,391.5 C 1574.96,377.3 1851.87,61.9 1863.5561170256462,47.5 C 1875.24,33.1 1525.51,265.1 1441,319.5" stroke="rgba(79, 131, 255, 1)" stroke-width="2"></path></g><defs><mask id="SvgjsMask1208"><rect width="1441" height="561" fill="#ffffff"></rect></mask></defs></svg>